<?xml version="1.0" encoding="UTF-8"?>
<svg width="256" height="256" viewBox="0 0 256 256" fill="none" xmlns="http://www.w3.org/2000/svg">
  <g>
    <path d="M128 18L215 67v75c0 52-39 99-87 103-48-4-87-51-87-103V67l87-49Z" fill="#fff" fill-opacity="0.12"/>
    <path d="M128 18L215 67v75c0 52-39 99-87 103-48-4-87-51-87-103V67l87-49Z" stroke="#fff" stroke-width="6" stroke-linejoin="round" fill="none"/>
    <g stroke="#fff" stroke-width="4" stroke-linecap="round">
      <line x1="128" y1="60" x2="128" y2="146"/>
      <line x1="80" y1="92" x2="176" y2="92"/>
      <path d="M92 92c0 0-14 22-14 31a22 22 0 0 0 44 0c0-9-14-31-14-31" fill="none"/>
      <path d="M164 92c0 0-14 22-14 31a22 22 0 0 0 44 0c0-9-14-31-14-31" fill="none"/>
      <path d="M116 114a14 14 0 0 1 14-14h8a14 14 0 0 1 0 28h-8" fill="none"/>
      <path d="M140 126a14 14 0 0 1-14 14h-8a14 14 0 0 1 0-28h8" fill="none"/>
      <line x1="80" y1="172" x2="176" y2="172"/>
    </g>
    <circle cx="128" cy="56" r="3" fill="#fff"/>
  </g>
</svg>
